# xmcd
#
# Track frame offsets:
#	150
#	82387
#	92250
#	94725
#	122007
#	153106
#	163316
#	177885
#	189732
#	209665
#	218796
#	316464
#
# Disc length: 4326 seconds
# Revision: 0
# Processed by: cddbd v1.5.2PL0 Copyright (c) Steve Scherf et al.
# Submitted via: dBpowerAMP V12.0
#
DISCID=a610e40c
DTITLE=Hale Dwoskin - The Inner Circle Retreat 02 CD 19
DYEAR=2007
DGENRE=Speech
TTITLE0=Release on the Story Called This Retreat - Share Your Gains
TTITLE1=Participant Gain
TTITLE2=Children Come Here to Teach
TTITLE3=Silence Is Not Required - Awareness Does Not Change
TTITLE4=Participant Gains and Comments
TTITLE5=The World Wide Releasing Community
TTITLE6=Participant Gains
TTITLE7=Processes Review
TTITLE8=Participant Gains
TTITLE9=If You Are Efforting Simply Stop
TTITLE10=Participant Gains
TTITLE11=Summary of the Course - Conclusion
EXTD=
EXTT0=
EXTT1=
EXTT2=
EXTT3=
EXTT4=
EXTT5=
EXTT6=
EXTT7=
EXTT8=
EXTT9=
EXTT10=
EXTT11=
PLAYORDER=
